# xmcd
#
# Track frame offsets:
#  150
#  15377
#  31085
#  46887
#  63200
#  77735
#  86850
#  101767
#  112115
#  124312
#  138020
#  150490
#  171907
#  184825
#
# Disc length: 2681 seconds
#
# Revision: 0
# Processed by: cddbd v1.4PL0 Copyright (c) Steve Scherf et al.
# Submitted via: AltoMP3_Maker 3.0
#
DISCID=ae0a770e
DTITLE=Fiona Boyes - Sweet Jelly Roll
DYEAR=1900
DGENRE=
TTITLE0=The Preacher
TTITLE1=Devil Says
TTITLE2=A'int No Jelly Roll In Heaven
TTITLE3=In Love Again
TTITLE4=Drink To Your Health
TTITLE5=Harmonica Rag
TTITLE6=When Did You Leave Heaven
TTITLE7=How'd You Want Your Business Done
TTITLE8=Mess With Your Mama
TTITLE9=It's You
TTITLE10=Catfish Fiesta
TTITLE11=Down Home Gal
TTITLE12=Young Rider Blues
TTITLE13=Light At The End Of The Road
EXTD=
EXTT0=
EXTT1=
EXTT2=
EXTT3=
EXTT4=
EXTT5=
EXTT6=
EXTT7=
EXTT8=
EXTT9=
EXTT10=
EXTT11=
EXTT12=
EXTT13=
PLAYORDER=
